<svg width="22" height="22" viewBox="0 0 22 22" fill="none" xmlns="http://www.w3.org/2000/svg">
<path d="M5.4527 21H16.5927C19.0233 21 21 19.023 21 16.5929V5.45253C21 2.99738 19.0229 1 16.5927 1H5.4527C2.99746 1 1 2.99738 1 5.45253V16.5929C1 19.023 2.99746 21 5.4527 21ZM2.54006 5.45253C2.54006 3.81936 3.81947 2.54 5.4527 2.54H16.5927C18.1736 2.54 19.4599 3.84669 19.4599 5.45253V16.5929C19.4599 18.1737 18.1736 19.46 16.5927 19.46H5.4527C3.8468 19.46 2.54006 18.1737 2.54006 16.5929V5.45253Z" fill="#4E5258"/>
<path d="M12.4414 16.2253C12.8209 16.2253 13.1289 15.9173 13.1289 15.5378V6.44427C13.1289 6.06477 12.8209 5.75677 12.4414 5.75677C12.0619 5.75677 11.7539 6.06477 11.7539 6.44427V15.5378C11.7539 15.9177 12.0619 16.2253 12.4414 16.2253Z" fill="#4E5258"/>
<path d="M6.63672 16.2253C7.01622 16.2253 7.32422 15.9173 7.32422 15.5378V12.4523C7.32422 12.0728 7.01622 11.7648 6.63672 11.7648C6.25722 11.7648 5.94922 12.0728 5.94922 12.4523V15.5378C5.94922 15.9177 6.25722 16.2253 6.63672 16.2253Z" fill="#4E5258"/>
<path d="M9.55859 16.2253C9.93809 16.2253 10.2461 15.9173 10.2461 15.5378V9.61053C10.2461 9.23103 9.93809 8.92303 9.55859 8.92303C9.17909 8.92303 8.87109 9.23103 8.87109 9.61053V15.5378C8.87109 15.9177 9.17909 16.2253 9.55859 16.2253Z" fill="#4E5258"/>
<path d="M15.3242 16.2254C15.7037 16.2254 16.0117 15.9174 16.0117 15.5379V11.3152C16.0117 10.9357 15.7037 10.6277 15.3242 10.6277C14.9447 10.6277 14.6367 10.9357 14.6367 11.3152V15.5379C14.6367 15.9177 14.9447 16.2254 15.3242 16.2254Z" fill="#4E5258"/>
</svg>
