<svg width="22" height="22" viewBox="0 0 22 22" fill="none" xmlns="http://www.w3.org/2000/svg">
<path d="M21 6.5V15.5C21 18.2 19.5 20 16 20H8C4.5 20 3 18.2 3 15.5V6.5C3 3.8 4.5 2 8 2H16C19.5 2 21 3.8 21 6.5Z" stroke="#4E5258" strokeWidth="1.5" stroke-miterlimit="10" strokeLinecap="round" strokeLinejoin="round"/>
<path d="M15.2096 1.83331V9.0383C15.2096 9.44163 14.7329 9.64329 14.4396 9.37746L12.313 7.41584C12.1388 7.25084 11.8638 7.25084 11.6896 7.41584L9.56299 9.37746C9.26966 9.64329 8.79297 9.44163 8.79297 9.0383V1.83331H15.2096Z" stroke="#4E5258" strokeWidth="1.5" stroke-miterlimit="10" strokeLinecap="round" strokeLinejoin="round"/>
<path d="M12.1445 12.8333H16.0404" stroke="#4E5258" strokeWidth="1.5" stroke-miterlimit="10" strokeLinecap="round" strokeLinejoin="round"/>
<path d="M8.25 16.5H16.0417" stroke="#4E5258" strokeWidth="1.5" stroke-miterlimit="10" strokeLinecap="round" strokeLinejoin="round"/>
</svg>
