<svg width="26" height="27" viewBox="0 0 26 27" fill="none" xmlns="http://www.w3.org/2000/svg">
<path d="M13 1.59134C6.36792 1.59134 1 6.95834 1 13.5913C1 15.6961 1.54895 17.7519 2.59137 19.565L1.04523 24.3664C0.937378 24.7011 1.026 25.068 1.27466 25.3167C1.52094 25.563 1.88696 25.6549 2.22498 25.5461L7.02637 24C8.83948 25.0424 10.8952 25.5913 13 25.5913C19.6321 25.5913 25 20.2243 25 13.5913C25 6.95926 19.633 1.59134 13 1.59134ZM13 23.7163C11.0988 23.7163 9.24561 23.1859 7.64069 22.1823C7.40979 22.038 7.12305 21.999 6.85626 22.0849L3.39026 23.2011L4.50647 19.7351C4.59106 19.4721 4.55536 19.185 4.40887 18.9507C3.40546 17.3457 2.875 15.4925 2.875 13.5913C2.875 8.00845 7.41711 3.46634 13 3.46634C18.5829 3.46634 23.125 8.00845 23.125 13.5913C23.125 19.1742 18.5829 23.7163 13 23.7163ZM14.1719 13.5913C14.1719 14.2384 13.6473 14.7632 13 14.7632C12.3527 14.7632 11.8281 14.2384 11.8281 13.5913C11.8281 12.9441 12.3527 12.4195 13 12.4195C13.6473 12.4195 14.1719 12.9441 14.1719 13.5913ZM18.8594 13.5913C18.8594 14.2384 18.3348 14.7632 17.6875 14.7632C17.0402 14.7632 16.5156 14.2384 16.5156 13.5913C16.5156 12.9441 17.0402 12.4195 17.6875 12.4195C18.3348 12.4195 18.8594 12.9441 18.8594 13.5913ZM9.48438 13.5913C9.48438 14.2384 8.95978 14.7632 8.3125 14.7632C7.66541 14.7632 7.14062 14.2384 7.14062 13.5913C7.14062 12.9441 7.66541 12.4195 8.3125 12.4195C8.95978 12.4195 9.48438 12.9441 9.48438 13.5913Z" fill="#585D64"/>
</svg>
