<svg width="22" height="22" viewBox="0 0 22 22" fill="none" xmlns="http://www.w3.org/2000/svg">
<path d="M4.58203 9.16668H6.41536C8.2487 9.16668 9.16536 8.25001 9.16536 6.41668V4.58334C9.16536 2.75001 8.2487 1.83334 6.41536 1.83334H4.58203C2.7487 1.83334 1.83203 2.75001 1.83203 4.58334V6.41668C1.83203 8.25001 2.7487 9.16668 4.58203 9.16668Z" fill="#2B3244" stroke="#2B3244" strokeWidth="1.5" stroke-miterlimit="10" strokeLinecap="round" strokeLinejoin="round"/>
<path d="M15.582 9.16668H17.4154C19.2487 9.16668 20.1654 8.25001 20.1654 6.41668V4.58334C20.1654 2.75001 19.2487 1.83334 17.4154 1.83334H15.582C13.7487 1.83334 12.832 2.75001 12.832 4.58334V6.41668C12.832 8.25001 13.7487 9.16668 15.582 9.16668Z" stroke="#2B3244" strokeWidth="1.5" stroke-miterlimit="10" strokeLinecap="round" strokeLinejoin="round"/>
<path d="M15.582 20.1667H17.4154C19.2487 20.1667 20.1654 19.25 20.1654 17.4167V15.5833C20.1654 13.75 19.2487 12.8333 17.4154 12.8333H15.582C13.7487 12.8333 12.832 13.75 12.832 15.5833V17.4167C12.832 19.25 13.7487 20.1667 15.582 20.1667Z" stroke="#2B3244" strokeWidth="1.5" stroke-miterlimit="10" strokeLinecap="round" strokeLinejoin="round"/>
<path d="M4.58203 20.1667H6.41536C8.2487 20.1667 9.16536 19.25 9.16536 17.4167V15.5833C9.16536 13.75 8.2487 12.8333 6.41536 12.8333H4.58203C2.7487 12.8333 1.83203 13.75 1.83203 15.5833V17.4167C1.83203 19.25 2.7487 20.1667 4.58203 20.1667Z" stroke="#2B3244" strokeWidth="1.5" stroke-miterlimit="10" strokeLinecap="round" strokeLinejoin="round"/>
</svg>
