<svg width="22" height="22" viewBox="0 0 22 22" fill="none" xmlns="http://www.w3.org/2000/svg">
<g clipPath="url(#clip0_33228_7639)">
<path d="M14.8733 11.7796C15.2089 11.444 15.2089 10.8999 14.8733 10.5643L13.4062 9.09723V6.01569C13.4062 5.54105 13.0215 5.15631 12.5469 5.15631C12.0722 5.15631 11.6875 5.54105 11.6875 6.01569V9.45319C11.6875 9.68109 11.778 9.89972 11.9392 10.0609L13.6579 11.7796C13.8257 11.9474 14.0457 12.0313 14.2656 12.0313C14.4856 12.0313 14.7055 11.9474 14.8733 11.7796Z" fill="#4E5258"/>
<path d="M6.73303 5.54379L5.51775 4.32851C4.51245 3.32334 2.87689 3.32338 1.87176 4.32851L1.26251 4.93776C-0.144805 6.34503 -0.404852 8.51426 0.630136 10.2129C1.61309 11.826 3.25896 14.2231 5.51775 16.4819C7.77734 18.7415 10.1751 20.3876 11.7886 21.3706C13.4798 22.401 15.6494 22.1498 17.0619 20.7372L17.6712 20.1279C18.6764 19.1227 18.6764 17.4871 17.6712 16.4819L16.4558 15.2666C15.867 14.6777 14.6321 13.8808 12.9768 15.1602C12.6179 15.4376 12.1631 15.456 11.8449 15.2061C10.8839 14.4514 9.98181 13.6539 9.16382 12.8359C8.3435 12.0156 7.54385 11.1107 6.78704 10.1464C6.53847 9.82967 6.55303 9.37991 6.82335 9.02722C8.10429 7.35587 7.31655 6.12735 6.73303 5.54379ZM7.94844 14.0513C8.81478 14.9176 9.76856 15.7609 10.7833 16.5578C11.7166 17.2908 13.0508 17.2752 14.0279 16.5201C14.6278 16.0565 14.8969 16.1383 15.2405 16.4819L16.4558 17.6972C16.7909 18.0323 16.7909 18.5775 16.4559 18.9126L15.8466 19.5218C15.002 20.3665 13.701 20.5232 12.6828 19.9028C11.1494 18.9686 8.87244 17.406 6.73312 15.2666C4.59443 13.1279 3.03196 10.8516 2.09786 9.31855C1.47692 8.29942 1.6332 6.99772 2.47784 6.15309L3.08713 5.54383C3.25462 5.3763 3.47471 5.29255 3.6948 5.29255C3.91484 5.29255 4.13492 5.3763 4.30246 5.54383L5.5177 6.75912C5.80886 7.05032 5.97519 7.30843 5.45918 7.98167C4.7156 8.95186 4.70572 10.2784 5.43503 11.2076C6.23403 12.2258 7.0797 13.1825 7.94844 14.0513Z" fill="#4E5258"/>
<path d="M12.5461 6.10352e-05C10.3221 6.10352e-05 8.16144 0.787635 6.46228 2.21772C6.09915 2.52331 6.05253 3.06545 6.35812 3.42858C6.66376 3.79175 7.2059 3.83833 7.56903 3.53269C8.95885 2.363 10.7264 1.71881 12.5461 1.71881C16.8109 1.71881 20.2805 5.18845 20.2805 9.45319C20.2805 11.2732 19.6361 13.041 18.466 14.431C18.1603 14.7941 18.2069 15.3362 18.57 15.6419C18.9355 15.9495 19.4772 15.8986 19.7809 15.5379C21.2114 13.8386 21.9993 11.6776 21.9993 9.45319C21.9993 6.92817 21.016 4.55428 19.2305 2.76884C17.445 0.983358 15.0712 6.10352e-05 12.5461 6.10352e-05Z" fill="#4E5258"/>
</g>
<defs>
<clipPath id="clip0_33228_7639">
<rect width="22" height="22" fill="white"/>
</clipPath>
</defs>
</svg>
