<svg width="21" height="20" viewBox="0 0 21 20" fill="none" xmlns="http://www.w3.org/2000/svg">
<path d="M15.5 8.95866C15.1583 8.95866 14.875 8.67533 14.875 8.33366V6.66699C14.875 4.04199 14.1333 2.29199 10.5 2.29199C6.86667 2.29199 6.125 4.04199 6.125 6.66699V8.33366C6.125 8.67533 5.84167 8.95866 5.5 8.95866C5.15833 8.95866 4.875 8.67533 4.875 8.33366V6.66699C4.875 4.25033 5.45833 1.04199 10.5 1.04199C15.5417 1.04199 16.125 4.25033 16.125 6.66699V8.33366C16.125 8.67533 15.8417 8.95866 15.5 8.95866Z" fill="#4E5258"/>
<path d="M10.5013 16.0417C9.00964 16.0417 7.79297 14.825 7.79297 13.3333C7.79297 11.8417 9.00964 10.625 10.5013 10.625C11.993 10.625 13.2096 11.8417 13.2096 13.3333C13.2096 14.825 11.993 16.0417 10.5013 16.0417ZM10.5013 11.875C9.7013 11.875 9.04297 12.5333 9.04297 13.3333C9.04297 14.1333 9.7013 14.7917 10.5013 14.7917C11.3013 14.7917 11.9596 14.1333 11.9596 13.3333C11.9596 12.5333 11.3013 11.875 10.5013 11.875Z" fill="#4E5258"/>
<path d="M14.666 18.958H6.33268C2.65768 18.958 1.54102 17.8413 1.54102 14.1663V12.4997C1.54102 8.82467 2.65768 7.70801 6.33268 7.70801H14.666C18.341 7.70801 19.4577 8.82467 19.4577 12.4997V14.1663C19.4577 17.8413 18.341 18.958 14.666 18.958ZM6.33268 8.95801C3.34935 8.95801 2.79102 9.52467 2.79102 12.4997V14.1663C2.79102 17.1413 3.34935 17.708 6.33268 17.708H14.666C17.6493 17.708 18.2077 17.1413 18.2077 14.1663V12.4997C18.2077 9.52467 17.6493 8.95801 14.666 8.95801H6.33268Z" fill="#4E5258"/>
</svg>
