<svg width="26" height="27" viewBox="0 0 26 27" fill="none" xmlns="http://www.w3.org/2000/svg">
<path d="M13 7.56799V11.1755" stroke="#585D64" strokeWidth="2" stroke-miterlimit="10" strokeLinecap="round"/>
<path d="M13.0198 2.758C9.03318 2.758 5.80485 5.98633 5.80485 9.973V12.248C5.80485 12.9847 5.50151 14.0897 5.12235 14.718L3.74651 17.0147C2.90151 18.4338 3.48651 20.0155 5.04651 20.5355C10.2248 22.258 15.8257 22.258 21.004 20.5355C22.4665 20.048 23.0948 18.3363 22.304 17.0147L20.9282 14.718C20.549 14.0897 20.2457 12.9738 20.2457 12.248V9.973C20.2348 6.008 16.9848 2.758 13.0198 2.758Z" stroke="#585D64" strokeWidth="2" stroke-miterlimit="10" strokeLinecap="round"/>
<path d="M16.6056 20.9797C16.6056 22.9622 14.9806 24.5872 12.9981 24.5872C12.0123 24.5872 11.1023 24.1755 10.4523 23.5255C9.80229 22.8755 9.39062 21.9655 9.39062 20.9797" stroke="#585D64" strokeWidth="2" stroke-miterlimit="10"/>
</svg>
