<svg width="13" height="20" viewBox="0 0 13 20" fill="none" xmlns="http://www.w3.org/2000/svg">
<path d="M5 1H2.75C2.15326 1 1.58097 1.20319 1.15901 1.56487C0.737053 1.92654 0.5 2.41708 0.5 2.92857V17.0714C0.5 17.5829 0.737053 18.0735 1.15901 18.4351C1.58097 18.7968 2.15326 19 2.75 19H10.25C10.8467 19 11.419 18.7968 11.841 18.4351C12.2629 18.0735 12.5 17.5829 12.5 17.0714V2.92857C12.5 2.41708 12.2629 1.92654 11.841 1.56487C11.419 1.20319 10.8467 1 10.25 1H8M5 1V2.28571H8V1M5 1H8M5 17.0714H8" stroke="#4E5258" strokeLinecap="round" strokeLinejoin="round"/>
</svg>
