<svg width="22" height="22" viewBox="0 0 22 22" fill="none" xmlns="http://www.w3.org/2000/svg">
<path d="M7.72266 6.37949H8.89453V7.55136H7.72266V6.37949Z" fill="#4E5258"/>
<path d="M7.72266 9.06918H8.89453V10.2411H7.72266V9.06918Z" fill="#4E5258"/>
<path d="M13.1055 9.06918H14.2773V10.2411H13.1055V9.06918Z" fill="#4E5258"/>
<path d="M15.793 9.06918H16.9648V10.2411H15.793V9.06918Z" fill="#4E5258"/>
<path d="M13.1055 11.7589H14.2773V12.9308H13.1055V11.7589Z" fill="#4E5258"/>
<path d="M15.793 11.7589H16.9648V12.9308H15.793V11.7589Z" fill="#4E5258"/>
<path d="M13.1055 14.4487H14.2773V15.6205H13.1055V14.4487Z" fill="#4E5258"/>
<path d="M15.793 14.4487H16.9648V15.6205H15.793V14.4487Z" fill="#4E5258"/>
<path d="M13.1055 17.1384H14.2773V18.3103H13.1055V17.1384Z" fill="#4E5258"/>
<path d="M15.793 17.1384H16.9648V18.3103H15.793V17.1384Z" fill="#4E5258"/>
<path d="M5.03516 9.06918H6.20703V10.2411H5.03516V9.06918Z" fill="#4E5258"/>
<path d="M7.72266 11.7589H8.89453V12.9308H7.72266V11.7589Z" fill="#4E5258"/>
<path d="M5.03516 11.7589H6.20703V12.9308H5.03516V11.7589Z" fill="#4E5258"/>
<path d="M7.72266 14.4487H8.89453V15.6205H7.72266V14.4487Z" fill="#4E5258"/>
<path d="M5.03516 14.4487H6.20703V15.6205H5.03516V14.4487Z" fill="#4E5258"/>
<path d="M19.6551 19.8281V6.37945H11.5859V3.58398L10.2411 3.80813V1H3.68973V4.90004L2.34488 5.12418V19.8281H1V21H21V19.8281H19.6551ZM18.4832 7.55133V19.8281H11.5859V7.55133H18.4832ZM4.8616 2.17188H9.06918V4.00344L4.8616 4.70473V2.17188ZM3.51676 6.11691L10.4141 4.96734V6.37945V19.8281H8.89621V17.1384H5.03461V19.8281H3.51676V6.11691ZM7.72434 19.8281H6.20648V18.3103H7.72434V19.8281Z" fill="#4E5258"/>
</svg>
