<svg width="22" height="22" viewBox="0 0 22 22" fill="none" xmlns="http://www.w3.org/2000/svg">
<path d="M18.845 1H3.15496C1.96672 1 1 1.96668 1 3.15492V16.3346C1 17.5229 1.96672 18.4896 3.15496 18.4896H8.24686L10.5856 20.8284C10.6955 20.9382 10.8445 21 10.9999 21C11.1553 21 11.3044 20.9383 11.4143 20.8284L13.7531 18.4896H18.845C20.0333 18.4896 21 17.5229 21 16.3346V3.15492C21 1.96668 20.0332 1 18.845 1ZM19.8281 16.3346C19.8281 16.8767 19.3871 17.3177 18.845 17.3177H13.5104C13.3549 17.3177 13.2059 17.3794 13.0961 17.4893L10.9999 19.5854L8.90389 17.4893C8.79401 17.3795 8.64499 17.3177 8.48956 17.3177H3.15496C2.61289 17.3177 2.17187 16.8767 2.17187 16.3346V3.15492C2.17187 2.61285 2.61289 2.17188 3.15496 2.17188H18.845C19.3871 2.17188 19.8281 2.61285 19.8281 3.15492V16.3346Z" fill="#4E5258"/>
<path d="M16.5358 7.41402L13.1096 6.91601L11.5769 3.811C11.4684 3.59104 11.2443 3.45178 10.999 3.45178C10.7537 3.45178 10.5296 3.59104 10.421 3.81104L8.88847 6.91601L5.46202 7.41402C5.21924 7.44929 5.01755 7.61932 4.94171 7.85268C4.86591 8.086 4.92916 8.34214 5.10482 8.51337L7.58437 10.9302L6.99914 14.3429C6.95767 14.5846 7.05706 14.829 7.25553 14.9733C7.45405 15.1174 7.71719 15.1364 7.93431 15.0223L10.999 13.4111L14.0639 15.0223C14.1582 15.0719 14.2612 15.0964 14.3638 15.0964H14.3664C14.7216 15.0955 15.0092 14.8072 15.0092 14.4518C15.0092 14.4023 15.0037 14.3541 14.9931 14.3078L14.4135 10.9302L16.893 8.51341C17.0687 8.34218 17.132 8.08605 17.0561 7.85273C16.9803 7.61932 16.7787 7.44929 16.5358 7.41402ZM13.2711 10.2436C13.1191 10.3917 13.0498 10.6051 13.0857 10.8142L13.5077 13.2735L11.2989 12.1124C11.1111 12.0137 10.8868 12.0137 10.699 12.1124L8.49041 13.2736L8.91219 10.8141C8.94803 10.605 8.87872 10.3917 8.72682 10.2437L6.93984 8.50186L9.40921 8.14294C9.61911 8.11243 9.80057 7.9806 9.89446 7.79038L10.999 5.55252L12.1037 7.79042C12.1976 7.9806 12.379 8.11243 12.5889 8.14294L15.0581 8.50186L13.2711 10.2436Z" fill="#4E5258"/>
</svg>
