<svg width="22" height="22" viewBox="0 0 22 22" fill="none" xmlns="http://www.w3.org/2000/svg">
<path d="M11 13.75C12.5188 13.75 13.75 12.5188 13.75 11C13.75 9.48122 12.5188 8.25 11 8.25C9.48122 8.25 8.25 9.48122 8.25 11C8.25 12.5188 9.48122 13.75 11 13.75Z" stroke="#4E5258" strokeWidth="1.5" stroke-miterlimit="10" strokeLinecap="round" strokeLinejoin="round"/>
<path d="M1.83203 11.8066V10.1933C1.83203 9.23998 2.6112 8.45165 3.5737 8.45165C5.23286 8.45165 5.9112 7.27832 5.07703 5.83915C4.60036 5.01415 4.88453 3.94165 5.7187 3.46498L7.30453 2.55748C8.0287 2.12665 8.9637 2.38332 9.39453 3.10748L9.49536 3.28165C10.3204 4.72082 11.677 4.72082 12.5112 3.28165L12.612 3.10748C13.0429 2.38332 13.9779 2.12665 14.702 2.55748L16.2879 3.46498C17.122 3.94165 17.4062 5.01415 16.9295 5.83915C16.0954 7.27832 16.7737 8.45165 18.4329 8.45165C19.3862 8.45165 20.1745 9.23082 20.1745 10.1933V11.8066C20.1745 12.76 19.3954 13.5483 18.4329 13.5483C16.7737 13.5483 16.0954 14.7216 16.9295 16.1608C17.4062 16.995 17.122 18.0583 16.2879 18.535L14.702 19.4425C13.9779 19.8733 13.0429 19.6166 12.612 18.8925L12.5112 18.7183C11.6862 17.2791 10.3295 17.2791 9.49536 18.7183L9.39453 18.8925C8.9637 19.6166 8.0287 19.8733 7.30453 19.4425L5.7187 18.535C4.88453 18.0583 4.60036 16.9858 5.07703 16.1608C5.9112 14.7216 5.23286 13.5483 3.5737 13.5483C2.6112 13.5483 1.83203 12.76 1.83203 11.8066Z" stroke="#4E5258" strokeWidth="1.5" stroke-miterlimit="10" strokeLinecap="round" strokeLinejoin="round"/>
</svg>
